<?xml version="1.0" encoding="UTF-8" standalone="no"?><!DOCTYPE svg PUBLIC "-//W3C//DTD SVG 1.1//EN" "http://www.w3.org/Graphics/SVG/1.1/DTD/svg11.dtd"><svg width="100%" height="100%" viewBox="0 0 20 40" version="1.1" xmlns="http://www.w3.org/2000/svg" xmlns:xlink="http://www.w3.org/1999/xlink" xml:space="preserve" style="fill-rule:evenodd;clip-rule:evenodd;stroke-linejoin:round;stroke-miterlimit:1.41421;"><path d="M7.691,16c0.189,0 0.362,0.107 0.447,0.276c0.453,0.906 1.862,3.724 1.862,3.724c0,0 1.409,-2.818 1.862,-3.724c0.085,-0.169 0.258,-0.276 0.447,-0.276c0.236,0 0.572,0 0.882,0c0.173,0 0.334,0.09 0.425,0.237c0.091,0.148 0.1,0.332 0.022,0.487c-0.733,1.466 -2.391,4.783 -3.191,6.382c-0.084,0.169 -0.258,0.276 -0.447,0.276c-0.189,0 -0.363,-0.107 -0.447,-0.276c-0.8,-1.599 -2.458,-4.916 -3.191,-6.382c-0.078,-0.155 -0.069,-0.339 0.022,-0.487c0.091,-0.147 0.252,-0.237 0.425,-0.237c0.31,0 0.646,0 0.882,0Z"/></svg>