<?xml version="1.0" encoding="UTF-8" standalone="no"?><!DOCTYPE svg PUBLIC "-//W3C//DTD SVG 1.1//EN" "http://www.w3.org/Graphics/SVG/1.1/DTD/svg11.dtd"><svg width="100%" height="100%" viewBox="0 0 130 18" version="1.1" xmlns="http://www.w3.org/2000/svg" xmlns:xlink="http://www.w3.org/1999/xlink" xml:space="preserve" style="fill-rule:evenodd;clip-rule:evenodd;stroke-linejoin:round;stroke-miterlimit:1.41421;"><path d="M72.699,17.984l-13.299,0c-1.31,0 -2.378,-1.057 -2.378,-2.364l0,-13.24c0,-1.3 1.063,-2.358 2.377,-2.358l13.301,0c1.308,0 2.376,1.057 2.376,2.364l0,13.234c0,1.302 -1.063,2.364 -2.377,2.364Zm29.463,-4.222c0,1.455 -0.372,2.517 -1.123,3.193c-0.75,0.675 -1.896,1.013 -3.44,1.013c-0.565,0 -1.737,-0.11 -2.674,-0.316l0.345,-1.69c0.785,0.165 1.82,0.208 2.362,0.208c0.86,0 1.474,-0.174 1.84,-0.523c0.368,-0.35 0.548,-0.866 0.548,-1.553l0,-0.348c-0.213,0.103 -0.493,0.207 -0.838,0.316c-0.345,0.103 -0.745,0.158 -1.194,0.158c-0.59,0 -1.128,-0.093 -1.616,-0.278c-0.487,-0.185 -0.91,-0.458 -1.254,-0.817c-0.345,-0.36 -0.62,-0.812 -0.81,-1.352c-0.192,-0.54 -0.29,-1.503 -0.29,-2.212c0,-0.663 0.103,-1.497 0.306,-2.052c0.208,-0.556 0.504,-1.036 0.904,-1.433c0.394,-0.398 0.876,-0.703 1.44,-0.927c0.564,-0.223 1.227,-0.365 1.945,-0.365c0.695,0 1.336,0.088 1.96,0.19c0.625,0.105 1.156,0.214 1.59,0.333l0,8.456l-0.001,-0.001Zm-56.513,-5.702l1.374,0l1.208,3.367c0.183,0.48 0.305,0.93 0.366,1.354l0.043,0c0.033,-0.196 0.092,-0.435 0.178,-0.716c0.086,-0.28 0.54,-1.616 1.364,-4.004l1.364,0l-2.54,6.73c-0.462,1.235 -1.232,1.853 -2.31,1.853c-0.28,0 -0.55,-0.03 -0.816,-0.092l0,-0.998c0.19,0.043 0.406,0.065 0.65,0.065c0.61,0 1.036,-0.353 1.283,-1.058l0.22,-0.56l-2.384,-5.94l0,-0.001Zm20.608,-3.5c-2.815,0 -5.1,2.272 -5.1,5.078c0,2.806 2.285,5.072 5.1,5.072c2.815,0 5.1,-2.272 5.1,-5.078c0,-2.805 -2.28,-5.072 -5.1,-5.072l0,0Zm17.853,0.235c0.707,0 1.304,0.088 1.786,0.262c0.482,0.174 0.87,0.42 1.156,0.73c0.29,0.316 0.487,0.735 0.608,1.182c0.126,0.447 0.186,0.937 0.186,1.477l0,5.48c-0.33,0.07 -0.827,0.153 -1.495,0.25c-0.67,0.1 -1.42,0.148 -2.253,0.148c-0.553,0 -1.062,-0.054 -1.517,-0.158c-0.46,-0.103 -0.85,-0.272 -1.178,-0.506c-0.323,-0.236 -0.575,-0.535 -0.76,-0.906c-0.182,-0.37 -0.275,-0.893 -0.275,-1.438c0,-0.523 0.104,-0.856 0.307,-1.215c0.208,-0.36 0.487,-0.653 0.838,-0.882c0.356,-0.23 0.76,-0.392 1.227,-0.49c0.464,-0.098 0.952,-0.147 1.456,-0.147c0.235,0 0.482,0.017 0.745,0.044c0.258,0.028 0.538,0.077 0.833,0.148l0,-0.35c0,-0.244 -0.027,-0.48 -0.087,-0.697c-0.06,-0.223 -0.165,-0.414 -0.307,-0.582c-0.15,-0.17 -0.34,-0.3 -0.582,-0.393c-0.24,-0.092 -0.547,-0.163 -0.914,-0.163c-0.493,0 -0.942,0.06 -1.353,0.13c-0.41,0.07 -0.75,0.153 -1.007,0.246l-0.258,-1.75c0.27,-0.092 0.67,-0.184 1.184,-0.277c0.513,-0.098 1.067,-0.142 1.658,-0.142l0.002,-0.001Zm8.868,9.477c-3.51,0.015 -3.51,-2.823 -3.51,-3.276l-0.008,-10.07l2.14,-0.338l0,10.002c0,0.257 0,1.88 1.376,1.886l0,1.793l0.002,0.003Zm24.12,-0.001c-3.51,0.015 -3.51,-2.823 -3.51,-3.276l-0.005,-10.069l2.14,-0.338l0,10.002c0,0.257 0,1.88 1.376,1.886l0,1.793l-0.001,0.002Zm3.775,0l-2.152,0l0,-9.201l2.153,-0.338l0,9.535l-0.001,0.004Zm5.352,-9.53c0.706,0 1.304,0.087 1.786,0.26c0.483,0.176 0.87,0.42 1.156,0.73c0.285,0.312 0.488,0.737 0.608,1.184c0.126,0.446 0.187,0.937 0.187,1.476l0,5.48c-0.328,0.072 -0.827,0.154 -1.495,0.252c-0.668,0.098 -1.418,0.147 -2.25,0.147c-0.554,0 -1.064,-0.056 -1.518,-0.16c-0.46,-0.103 -0.85,-0.272 -1.178,-0.506c-0.324,-0.234 -0.576,-0.534 -0.762,-0.904c-0.18,-0.37 -0.274,-0.894 -0.274,-1.44c0,-0.522 0.104,-0.854 0.306,-1.214c0.21,-0.36 0.488,-0.653 0.84,-0.882c0.355,-0.23 0.76,-0.392 1.225,-0.49c0.466,-0.1 0.954,-0.148 1.458,-0.148c0.235,0 0.482,0.017 0.744,0.044c0.263,0.027 0.537,0.076 0.833,0.147l0,-0.35c0,-0.244 -0.027,-0.478 -0.088,-0.696c-0.06,-0.222 -0.164,-0.413 -0.306,-0.582c-0.148,-0.17 -0.34,-0.3 -0.58,-0.392c-0.242,-0.093 -0.55,-0.164 -0.916,-0.164c-0.493,0 -0.942,0.06 -1.353,0.13c-0.41,0.072 -0.75,0.154 -1.008,0.246l-0.258,-1.75c0.268,-0.09 0.668,-0.184 1.183,-0.276c0.515,-0.093 1.068,-0.142 1.66,-0.142l0,0Zm-13.897,4.815c0,0.72 -0.104,1.264 -0.317,1.858c-0.213,0.594 -0.514,1.1 -0.903,1.52c-0.39,0.42 -0.855,0.746 -1.402,0.975c-0.548,0.228 -1.392,0.36 -1.813,0.36c-0.422,-0.007 -1.26,-0.127 -1.802,-0.36c-0.543,-0.235 -1.008,-0.557 -1.397,-0.976c-0.39,-0.42 -0.69,-0.926 -0.91,-1.52c-0.22,-0.594 -0.328,-1.14 -0.328,-1.858c0,-0.72 0.098,-1.41 0.318,-2c0.22,-0.588 0.525,-1.09 0.92,-1.51c0.394,-0.418 0.865,-0.74 1.402,-0.968c0.542,-0.23 1.14,-0.338 1.786,-0.338c0.647,0 1.244,0.114 1.792,0.338c0.548,0.228 1.02,0.55 1.402,0.97c0.39,0.42 0.69,0.92 0.91,1.51c0.23,0.587 0.344,1.28 0.344,1.998l-0.002,0.001Zm-85.522,4.551c-0.9,0 -1.582,-0.262 -2.05,-0.786c-0.466,-0.524 -0.7,-1.277 -0.7,-2.258c0,-1 0.245,-1.767 0.733,-2.304c0.49,-0.537 1.195,-0.806 2.12,-0.806c0.626,0 1.19,0.117 1.69,0.35l-0.38,1.014c-0.534,-0.207 -0.974,-0.31 -1.322,-0.31c-1.027,0 -1.54,0.68 -1.54,2.045c0,0.667 0.127,1.168 0.383,1.502c0.257,0.335 0.632,0.503 1.126,0.503c0.562,0 1.094,-0.14 1.595,-0.42l0,1.102c-0.224,0.132 -0.465,0.227 -0.72,0.284c-0.257,0.06 -0.568,0.087 -0.933,0.087l-0.002,-0.003Zm-18.909,-2.793c0.017,0.577 0.173,1.02 0.467,1.33c0.293,0.31 0.707,0.464 1.24,0.464c0.35,0 0.678,-0.033 0.98,-0.1c0.303,-0.065 0.628,-0.175 0.976,-0.33l0,1.027c-0.31,0.146 -0.62,0.25 -0.936,0.31c-0.315,0.062 -0.675,0.092 -1.08,0.092l0,0.001c-0.923,0 -1.646,-0.27 -2.167,-0.81c-0.52,-0.538 -0.78,-1.28 -0.78,-2.225c0,-0.97 0.24,-1.733 0.724,-2.288c0.484,-0.555 1.148,-0.833 1.993,-0.833c0.785,0 1.404,0.238 1.86,0.715c0.454,0.476 0.68,1.13 0.68,1.965l0,0.682l-3.957,0Zm-2.333,0.554c0,0.698 -0.252,1.246 -0.757,1.643c-0.505,0.4 -1.2,0.597 -2.09,0.597c-0.887,0 -1.614,-0.137 -2.18,-0.413l0,-1.215c0.358,0.168 0.74,0.3 1.14,0.397c0.404,0.097 0.78,0.145 1.127,0.145c0.508,0 0.883,-0.096 1.125,-0.29c0.24,-0.193 0.362,-0.453 0.362,-0.778c0,-0.294 -0.11,-0.543 -0.334,-0.747c-0.222,-0.204 -0.68,-0.446 -1.375,-0.725c-0.716,-0.29 -1.22,-0.62 -1.514,-0.994c-0.295,-0.372 -0.442,-0.82 -0.442,-1.342c0,-0.656 0.233,-1.17 0.7,-1.547c0.464,-0.377 1.09,-0.565 1.873,-0.565c0.753,0 1.5,0.164 2.246,0.494l-0.408,1.046c-0.698,-0.293 -1.32,-0.44 -1.87,-0.44c-0.414,0 -0.73,0.09 -0.944,0.27c-0.215,0.182 -0.323,0.42 -0.323,0.718c0,0.204 0.044,0.38 0.13,0.524c0.086,0.145 0.228,0.282 0.425,0.41c0.197,0.13 0.55,0.3 1.063,0.51c0.577,0.24 1,0.465 1.268,0.672c0.268,0.208 0.465,0.442 0.59,0.704c0.126,0.26 0.188,0.57 0.188,0.924l0,0.002Zm11.144,1.305c-0.287,0.362 -0.575,0.608 -0.865,0.738c-0.29,0.132 -0.663,0.197 -1.117,0.197c-0.584,0 -1.04,-0.157 -1.367,-0.472c-0.327,-0.315 -0.49,-0.76 -0.49,-1.338c0,-0.612 0.227,-1.074 0.68,-1.385c0.456,-0.312 1.15,-0.482 2.08,-0.51l1.026,-0.033l0,-0.318c0,-0.38 -0.09,-0.663 -0.266,-0.85c-0.177,-0.19 -0.452,-0.283 -0.825,-0.283c-0.304,0 -0.596,0.044 -0.875,0.133c-0.28,0.09 -0.548,0.195 -0.806,0.317l-0.408,-0.902c0.322,-0.17 0.675,-0.297 1.058,-0.384c0.383,-0.088 0.745,-0.132 1.085,-0.132c0.755,0 1.325,0.165 1.71,0.494c0.385,0.33 0.577,0.847 0.577,1.553l0,4l-0.902,0l0,0.002l-0.252,-0.827l-0.043,0Zm23.937,0.827l-0.946,0l0,-8.357l1.262,0l0,1.987c0,0.147 -0.007,0.365 -0.022,0.655c-0.014,0.29 -0.025,0.475 -0.032,0.553l0.054,0c0.4,-0.59 0.992,-0.886 1.772,-0.886l-0.001,0l0.001,0l0,0c0.741,0 1.319,0.27 1.732,0.806c0.413,0.537 0.62,1.29 0.62,2.26c0,0.975 -0.21,1.733 -0.628,2.276c-0.42,0.542 -1,0.813 -1.746,0.813c-0.75,0 -1.335,-0.27 -1.75,-0.81l-0.086,0l-0.23,0.703Zm-9.525,0l-1.262,0l0,-8.357l1.262,0l0,2.12c0,0.34 -0.02,0.705 -0.064,1.09l0.08,0c0.172,-0.285 0.41,-0.507 0.717,-0.665c0.306,-0.157 0.664,-0.236 1.072,-0.236c1.44,0 2.16,0.725 2.16,2.175l0,3.873l-1.269,0l0,-3.652c0,-0.46 -0.092,-0.8 -0.276,-1.026c-0.185,-0.226 -0.477,-0.34 -0.878,-0.34c-0.53,0 -0.92,0.16 -1.17,0.477c-0.247,0.316 -0.372,0.846 -0.372,1.59l0,2.951Zm-8.438,-6.048l-0.001,0l0.001,0l0,0c0.253,0 0.463,0.018 0.629,0.054l-0.125,1.176c-0.18,-0.043 -0.365,-0.064 -0.56,-0.064c-0.503,0 -0.913,0.164 -1.226,0.494c-0.312,0.33 -0.47,0.757 -0.47,1.284l0,3.104l-1.26,0l0,-5.94l0.987,0l0.167,1.047l0.064,0c0.197,-0.355 0.454,-0.636 0.77,-0.843c0.318,-0.208 0.66,-0.312 1.024,-0.312Zm43.575,5.26c-1.983,0 -3.593,-1.602 -3.593,-3.574c0,-1.972 1.61,-3.574 3.593,-3.574c1.983,0 3.593,1.602 3.593,3.574c0,1.972 -1.605,3.574 -3.593,3.574Zm-51.134,-0.072c0.46,0 0.827,-0.127 1.105,-0.383c0.276,-0.256 0.415,-0.615 0.415,-1.077l0,-0.516l-0.763,0.032c-0.594,0.022 -1.026,0.12 -1.297,0.298c-0.27,0.178 -0.405,0.45 -0.405,0.814c0,0.265 0.078,0.47 0.236,0.615c0.158,0.145 0.394,0.218 0.71,0.218l-0.001,-0.001Zm27.283,-4.158l-0.001,0c-0.51,0 -0.875,0.15 -1.1,0.45c-0.222,0.3 -0.338,0.8 -0.345,1.5l0,0.087c0,0.722 0.115,1.246 0.344,1.57c0.23,0.324 0.603,0.486 1.122,0.486c0.448,0 0.787,-0.177 1.018,-0.532c0.23,-0.354 0.347,-0.866 0.347,-1.536c0,-1.35 -0.46,-2.025 -1.385,-2.025Zm41.89,3.55c0.658,0 1.145,-0.037 1.485,-0.103l0,-2.169c-0.122,-0.034 -0.29,-0.072 -0.516,-0.105c-0.225,-0.032 -0.47,-0.054 -0.745,-0.054c-0.236,0 -0.477,0.017 -0.72,0.055c-0.24,0.033 -0.46,0.098 -0.65,0.19c-0.192,0.094 -0.35,0.224 -0.466,0.393c-0.12,0.17 -0.175,0.267 -0.175,0.523c0,0.503 0.174,0.79 0.492,0.982c0.317,0.19 0.75,0.29 1.292,0.29l0.003,-0.002Zm11.912,-2.976c0,0.894 0.197,1.885 0.592,2.3c0.394,0.413 0.903,0.62 1.528,0.62c0.34,0 0.663,-0.05 0.964,-0.14c0.3,-0.094 0.542,-0.203 0.734,-0.334l0,-5.29c-0.153,-0.033 -0.794,-0.163 -1.413,-0.18c-0.778,-0.02 -1.37,0.295 -1.786,0.8c-0.41,0.508 -0.62,1.396 -0.62,2.224l0.001,0Zm30.197,2.915c0.658,0 1.145,-0.037 1.485,-0.103l0,-2.168c-0.12,-0.034 -0.29,-0.072 -0.515,-0.105c-0.224,-0.032 -0.47,-0.054 -0.745,-0.054c-0.235,0 -0.476,0.017 -0.717,0.055c-0.24,0.033 -0.46,0.098 -0.652,0.19c-0.19,0.094 -0.35,0.224 -0.465,0.393c-0.12,0.17 -0.175,0.267 -0.175,0.523c0,0.503 0.175,0.79 0.493,0.982c0.323,0.196 0.75,0.29 1.293,0.29l-0.002,-0.003Zm-16.267,-2.91c0,-0.92 -0.203,-1.687 -0.598,-2.22c-0.394,-0.54 -0.947,-0.808 -1.654,-0.808c-0.706,0 -1.26,0.267 -1.654,0.807c-0.394,0.538 -0.586,1.3 -0.586,2.22c0,0.933 0.197,1.56 0.59,2.1c0.396,0.544 0.95,0.81 1.656,0.81c0.706,0 1.26,-0.272 1.654,-0.81c0.394,-0.546 0.59,-1.167 0.59,-2.1l0.002,0.001Zm-100.824,-0.653c-0.402,0 -0.723,0.127 -0.965,0.382c-0.242,0.254 -0.386,0.624 -0.433,1.11l2.696,0c-0.007,-0.49 -0.125,-0.86 -0.354,-1.113c-0.23,-0.253 -0.545,-0.38 -0.947,-0.38l0.003,0.001Zm56.943,-2.114l0,2.664c0,0.076 0.082,0.13 0.153,0.093l2.378,-1.225c0.054,-0.027 0.07,-0.093 0.043,-0.147c-0.492,-0.86 -1.406,-1.45 -2.463,-1.488c-0.055,0 -0.11,0.044 -0.11,0.104l-0.001,-0.001Zm-3.33,-1.956l-0.313,-0.31c-0.306,-0.306 -0.8,-0.306 -1.106,0l-0.372,0.37c-0.307,0.305 -0.307,0.795 0,1.1l0.306,0.306c0.05,0.05 0.12,0.038 0.165,-0.01c0.18,-0.247 0.378,-0.48 0.597,-0.7c0.224,-0.222 0.454,-0.418 0.706,-0.598c0.055,-0.033 0.06,-0.11 0.017,-0.158Zm4.217,-2.202l-1.824,0c-0.432,0 -0.783,0.35 -0.783,0.78l0,0.632c0,0.07 0.066,0.12 0.137,0.103c0.51,-0.146 1.046,-0.222 1.588,-0.222c0.52,0 1.036,0.07 1.534,0.207c0.066,0.016 0.132,-0.033 0.132,-0.103l-0.001,-0.001l0,-0.616c0,-0.43 -0.35,-0.78 -0.783,-0.78Zm52.65,1.092c-0.717,-0.001 -1.303,-0.578 -1.303,-1.292c0,-0.713 0.58,-1.29 1.303,-1.29c0.724,0 1.304,0.577 1.304,1.29c0,0.714 -0.584,1.291 -1.304,1.292l0.001,0l-0.002,0l0.001,0Z" style="fill:#233340;"/></svg>